<?xml version="1.0" encoding="UTF-8" standalone="no"?>
<!-- Created with Inkscape (http://www.inkscape.org/) -->

<svg
   width="13cm"
   height="5cm"
   viewBox="0 0 130 50"
   version="1.1"
   id="svg1"
   xml:space="preserve"
   inkscape:export-filename="Rotumofinal.png"
   inkscape:export-xdpi="96"
   inkscape:export-ydpi="96"
   xmlns:inkscape="http://www.inkscape.org/namespaces/inkscape"
   xmlns:sodipodi="http://sodipodi.sourceforge.net/DTD/sodipodi-0.dtd"
   xmlns="http://www.w3.org/2000/svg"
   xmlns:svg="http://www.w3.org/2000/svg"><sodipodi:namedview
     id="namedview1"
     pagecolor="#ffffff"
     bordercolor="#000000"
     borderopacity="0.25"
     inkscape:showpageshadow="2"
     inkscape:pageopacity="0.0"
     inkscape:pagecheckerboard="0"
     inkscape:deskcolor="#d1d1d1"
     inkscape:document-units="mm"
     showguides="true"
     inkscape:zoom="1.866066"
     inkscape:cx="233.64661"
     inkscape:cy="27.598167"
     inkscape:window-width="1920"
     inkscape:window-height="1009"
     inkscape:window-x="-8"
     inkscape:window-y="-8"
     inkscape:window-maximized="1"
     inkscape:current-layer="layer1"><sodipodi:guide
       position="63.841924,89.57896"
       orientation="0,-1"
       id="guide9"
       inkscape:locked="false" /></sodipodi:namedview><defs
     id="defs1" /><g
     inkscape:label="Camada 1"
     inkscape:groupmode="layer"
     id="layer1"><rect
       style="fill:#ffc6f4;fill-opacity:1;fill-rule:evenodd;stroke-width:0.264583"
       id="rect6"
       width="130.35953"
       height="50.194004"
       x="-0.11058005"
       y="-0.21037593" /><rect
       style="display:none;fill:#e40006;fill-opacity:1;fill-rule:evenodd;stroke-width:0.264583"
       id="rect7"
       width="36.242802"
       height="3.7910874"
       x="14.254492"
       y="24.414606"
       ry="0"
       sodipodi:insensitive="true" /><text
       xml:space="preserve"
       style="font-style:normal;font-variant:normal;font-weight:normal;font-stretch:normal;font-size:3.17865px;font-family:'Bookman Old Style';-inkscape-font-specification:'Bookman Old Style, Normal';font-variant-ligatures:normal;font-variant-caps:normal;font-variant-numeric:normal;font-variant-east-asian:normal;opacity:0.95;fill:#000000;fill-opacity:1;stroke:none;stroke-width:1.5;stroke-dasharray:none;stroke-opacity:1"
       x="30.311308"
       y="34.865017"
       id="text11"
       transform="scale(0.78891641,1.2675614)"><tspan
         sodipodi:role="line"
         id="tspan11"
         style="font-style:normal;font-variant:normal;font-weight:normal;font-stretch:normal;font-size:3.17865px;font-family:'Bookman Old Style';-inkscape-font-specification:'Bookman Old Style, Normal';font-variant-ligatures:normal;font-variant-caps:normal;font-variant-numeric:normal;font-variant-east-asian:normal;fill:#000000;stroke-width:1.5"
         x="30.311308"
         y="34.865017"> se compate o ano inteiro</tspan></text><text
       xml:space="preserve"
       style="font-style:normal;font-variant:normal;font-weight:normal;font-stretch:normal;font-size:3.29882px;font-family:Alef;-inkscape-font-specification:'Alef, Normal';font-variant-ligatures:normal;font-variant-caps:normal;font-variant-numeric:normal;font-variant-east-asian:normal;opacity:0.95;fill:#000000;fill-opacity:1;stroke:none;stroke-width:1.49999;stroke-dasharray:none;stroke-opacity:1"
       x="71.059944"
       y="7.4605789"
       id="text12"
       transform="scale(1.0266486,0.97404309)"><tspan
         sodipodi:role="line"
         id="tspan12"
         style="font-style:normal;font-variant:normal;font-weight:normal;font-stretch:normal;font-size:3.29882px;font-family:Alef;-inkscape-font-specification:'Alef, Normal';font-variant-ligatures:normal;font-variant-caps:normal;font-variant-numeric:normal;font-variant-east-asian:normal;fill:#ff0000;stroke-width:1.49999"
         x="71.059944"
         y="7.4605789">faça também... você vai precisar:</tspan><tspan
         sodipodi:role="line"
         style="font-style:normal;font-variant:normal;font-weight:normal;font-stretch:normal;font-size:3.29882px;font-family:Alef;-inkscape-font-specification:'Alef, Normal';font-variant-ligatures:normal;font-variant-caps:normal;font-variant-numeric:normal;font-variant-east-asian:normal;stroke-width:1.49999"
         x="71.059944"
         y="11.584104"
         id="tspan13">-500 ml. de Álcool de cereais</tspan><tspan
         sodipodi:role="line"
         style="font-style:normal;font-variant:normal;font-weight:normal;font-stretch:normal;font-size:3.29882px;font-family:Alef;-inkscape-font-specification:'Alef, Normal';font-variant-ligatures:normal;font-variant-caps:normal;font-variant-numeric:normal;font-variant-east-asian:normal;stroke-width:1.49999"
         x="71.059944"
         y="15.707629"
         id="tspan15">-10 g. de Cravo da índia</tspan><tspan
         sodipodi:role="line"
         style="font-style:normal;font-variant:normal;font-weight:normal;font-stretch:normal;font-size:3.29882px;font-family:Alef;-inkscape-font-specification:'Alef, Normal';font-variant-ligatures:normal;font-variant-caps:normal;font-variant-numeric:normal;font-variant-east-asian:normal;stroke-width:1.49999"
         x="71.059944"
         y="19.831154"
         id="tspan16">-1 Garrafa Pet</tspan><tspan
         sodipodi:role="line"
         style="font-style:normal;font-variant:normal;font-weight:normal;font-stretch:normal;font-size:3.29882px;font-family:Alef;-inkscape-font-specification:'Alef, Normal';font-variant-ligatures:normal;font-variant-caps:normal;font-variant-numeric:normal;font-variant-east-asian:normal;stroke-width:1.49999"
         x="71.059944"
         y="23.954679"
         id="tspan21" /><tspan
         sodipodi:role="line"
         style="font-style:normal;font-variant:normal;font-weight:normal;font-stretch:normal;font-size:3.29882px;font-family:Alef;-inkscape-font-specification:'Alef, Normal';font-variant-ligatures:normal;font-variant-caps:normal;font-variant-numeric:normal;font-variant-east-asian:normal;stroke-width:1.49999"
         x="71.059944"
         y="28.078203"
         id="tspan22" /><tspan
         sodipodi:role="line"
         style="font-style:normal;font-variant:normal;font-weight:normal;font-stretch:normal;font-size:3.29882px;font-family:Alef;-inkscape-font-specification:'Alef, Normal';font-variant-ligatures:normal;font-variant-caps:normal;font-variant-numeric:normal;font-variant-east-asian:normal;stroke-width:1.49999"
         x="71.059944"
         y="32.201729"
         id="tspan20" /><tspan
         sodipodi:role="line"
         style="font-style:normal;font-variant:normal;font-weight:normal;font-stretch:normal;font-size:3.29882px;font-family:Alef;-inkscape-font-specification:'Alef, Normal';font-variant-ligatures:normal;font-variant-caps:normal;font-variant-numeric:normal;font-variant-east-asian:normal;stroke-width:1.49999"
         x="71.059944"
         y="36.325253"
         id="tspan17" /></text><text
       xml:space="preserve"
       style="font-style:normal;font-variant:normal;font-weight:normal;font-stretch:normal;font-size:2.87473px;font-family:Sans;-inkscape-font-specification:'Sans, Normal';font-variant-ligatures:normal;font-variant-caps:normal;font-variant-numeric:normal;font-variant-east-asian:normal;opacity:0.95;fill:#2b0000;fill-opacity:1;stroke:none;stroke-width:1.5;stroke-dasharray:none;stroke-opacity:1"
       x="69.452362"
       y="26.521988"
       id="text23"
       transform="scale(1.0535656,0.94915781)"><tspan
         sodipodi:role="line"
         id="tspan23"
         style="font-style:normal;font-variant:normal;font-weight:normal;font-stretch:normal;font-size:2.87473px;font-family:Sans;-inkscape-font-specification:'Sans, Normal';font-variant-ligatures:normal;font-variant-caps:normal;font-variant-numeric:normal;font-variant-east-asian:normal;fill:#ff0000;stroke-width:1.5"
         x="69.452362"
         y="26.521988">MODO DE PREPARO</tspan><tspan
         sodipodi:role="line"
         style="font-style:normal;font-variant:normal;font-weight:normal;font-stretch:normal;font-size:2.87473px;font-family:Sans;-inkscape-font-specification:'Sans, Normal';font-variant-ligatures:normal;font-variant-caps:normal;font-variant-numeric:normal;font-variant-east-asian:normal;fill:#2b0000;stroke-width:1.5"
         x="69.452362"
         y="30.1154"
         id="tspan24">Coloque o álcool de cereais e o </tspan><tspan
         sodipodi:role="line"
         style="font-style:normal;font-variant:normal;font-weight:normal;font-stretch:normal;font-size:2.87473px;font-family:Sans;-inkscape-font-specification:'Sans, Normal';font-variant-ligatures:normal;font-variant-caps:normal;font-variant-numeric:normal;font-variant-east-asian:normal;fill:#2b0000;stroke-width:1.5"
         x="69.452362"
         y="33.708813"
         id="tspan25">cravo da índia na garrafa pet.</tspan><tspan
         sodipodi:role="line"
         style="font-style:normal;font-variant:normal;font-weight:normal;font-stretch:normal;font-size:2.87473px;font-family:Sans;-inkscape-font-specification:'Sans, Normal';font-variant-ligatures:normal;font-variant-caps:normal;font-variant-numeric:normal;font-variant-east-asian:normal;fill:#2b0000;stroke-width:1.5"
         x="69.452362"
         y="37.302227"
         id="tspan26">Feche e misture bem. Deixe em</tspan><tspan
         sodipodi:role="line"
         style="font-style:normal;font-variant:normal;font-weight:normal;font-stretch:normal;font-size:2.87473px;font-family:Sans;-inkscape-font-specification:'Sans, Normal';font-variant-ligatures:normal;font-variant-caps:normal;font-variant-numeric:normal;font-variant-east-asian:normal;fill:#2b0000;stroke-width:1.5"
         x="69.452362"
         y="40.895638"
         id="tspan27">um local sem luz (escuro) por 72h.</tspan><tspan
         sodipodi:role="line"
         style="font-style:normal;font-variant:normal;font-weight:normal;font-stretch:normal;font-size:2.87473px;font-family:Sans;-inkscape-font-specification:'Sans, Normal';font-variant-ligatures:normal;font-variant-caps:normal;font-variant-numeric:normal;font-variant-east-asian:normal;fill:#2b0000;stroke-width:1.5"
         x="69.452362"
         y="44.489052"
         id="tspan28">E pronto!!!</tspan></text></g><g
     inkscape:groupmode="layer"
     id="layer2"
     inkscape:label="Camada 2"
     transform="translate(3.261094,-0.85072019)"><g
       id="g6"
       transform="matrix(0.76555808,0,0,0.74610709,67.274154,13.619998)"
       style="fill:#ffc6f4;fill-opacity:1;stroke-width:1.32315"
       inkscape:transform-center-x="1.0324624"
       inkscape:transform-center-y="-0.78110663"><ellipse
         style="opacity:0.95;fill:#ffffff;fill-opacity:0;stroke:#ff0011;stroke-width:1.77712;stroke-dasharray:none;stroke-opacity:1"
         id="path7"
         cx="33.593967"
         cy="26.295362"
         rx="15.467637"
         ry="15.315998"
         transform="matrix(1.0980163,0,0,1.1359517,-86.554185,-22.152544)" /><path
         id="path6"
         style="opacity:1;fill:#000000;fill-opacity:1;stroke:#ef2525;stroke-width:0;stroke-opacity:1"
         d="m 31.648131,8.9183603 -0.253902,0.107386 1.278492,4.7962697 -0.982037,6.211046 0.55603,1.592505 c 0,0 -0.207944,0.596714 -0.214185,1.064951 -0.0031,0.233471 0.232625,1.036347 0.232625,1.036347 l -0.111112,0.07362 -2.63547,-1.693794 -0.01418,-6.24481 -2.742327,-2.903647 -0.124823,0.127551 2.593863,2.763904 -0.0048,6.351727 2.872351,1.856045 c 0,0 0.274821,0.841855 -0.01891,0.882067 -5.591282,0.76546 -12.496684,2.122858 -14.730078,5.200491 -1.517741,2.091459 5.524068,3.065599 7.63407,1.562024 2.407984,-1.715914 6.966457,-5.457468 6.966457,-5.457468 l 0.370687,0.477845 -5.35463,6.302958 -1.204732,5.733202 0.259574,0.03704 1.148942,-5.660048 5.243517,-6.119135 0.370215,0.294023 -4.335241,6.321246 3.61278,9.482338 0.222223,-0.147245 -3.650133,-9.335093 3.780156,-5.310691 c 0,0 -1.163879,4.978077 -0.407566,7.295224 0.265316,0.81286 0.999783,1.941855 1.269508,1.996258 0.06405,0.04303 0.128543,0.07171 0.189126,0.07128 0.07506,-5.36e-4 0.158163,-0.04417 0.23688,-0.104104 3.58e-4,-2.33e-4 0.0011,-7.03e-4 0.0014,-9.08e-4 0.05415,-0.04138 0.105217,-0.09044 0.151301,-0.138336 0.0171,-0.01799 0.03316,-0.03443 0.05106,-0.05486 0.07442,-0.08338 0.124823,-0.151936 0.124823,-0.151936 l -4.72e-4,-0.0037 c 0.315486,-0.4125 0.692634,-1.077509 0.867615,-1.613606 0.756313,-2.317147 -0.40804,-7.295225 -0.40804,-7.295225 l 3.780156,5.310692 -3.650131,9.335092 0.222223,0.147246 3.613252,-9.482338 -4.335714,-6.321247 0.370214,-0.294023 5.243992,6.119136 1.148467,5.660047 0.259576,-0.03704 -1.20426,-5.733202 -5.355103,-6.302957 0.370687,-0.477846 c 0,0 4.558945,3.741554 6.966929,5.457468 2.110002,1.503576 9.151339,0.529435 7.633598,-1.562023 -2.233394,-3.077633 -9.138796,-4.435031 -14.730078,-5.200491 -0.293734,-0.04021 -0.01844,-0.882068 -0.01844,-0.882068 l 2.871878,-1.856045 -0.0048,-6.351726 2.593863,-2.763905 -0.124824,-0.12755 -2.742327,2.903646 -0.01418,6.244811 -2.635471,1.693794 -0.111112,-0.07362 c 0,0 0.235736,-0.802877 0.232625,-1.036348 -0.0062,-0.468237 -0.214185,-1.064951 -0.214185,-1.064951 l 0.556031,-1.592504 -0.982037,-6.211047 1.278492,-4.7962697 -0.253429,-0.107386 -1.384402,4.8858367 0.995748,6.185255 -0.419387,1.455106 c 0,0 -0.256785,-0.118817 -0.392909,-0.155687 -0.08462,-0.08199 -0.377779,-5.969545 -0.377779,-5.969545 l -0.22506,-0.371865 -0.22506,0.371865 c 0,0 -0.293157,5.887553 -0.37778,5.969545 -0.136123,0.03687 -0.392909,0.155687 -0.392909,0.155687 l -0.419387,-1.455106 0.995749,-6.185255 z"
         transform="matrix(1.0980163,0,0,1.1359517,-86.554185,-22.152544)" /><path
         style="opacity:1;fill:#ff001a;fill-opacity:1;stroke:none;stroke-width:1.98472;stroke-dasharray:none;stroke-opacity:1"
         d="M -60.088719,21.165178 -34.618552,0.13441867 -36.908022,-3.4399703 -62.966379,17.53265 Z"
         id="path9"
         sodipodi:nodetypes="ccccc" /></g><text
       xml:space="preserve"
       style="font-style:normal;font-variant:normal;font-weight:normal;font-stretch:normal;font-size:8.9305px;font-family:'Freestyle Script';-inkscape-font-specification:'Freestyle Script, Normal';font-variant-ligatures:normal;font-variant-caps:normal;font-variant-numeric:normal;font-variant-east-asian:normal;opacity:0.95;fill:#ff001a;fill-opacity:1;stroke:none;stroke-width:1.5;stroke-dasharray:none;stroke-opacity:1"
       x="16.473154"
       y="44.862934"
       id="text10"
       transform="scale(1.1014171,0.90792126)"><tspan
         sodipodi:role="line"
         id="tspan10"
         x="16.473154"
         y="44.862934"
         style="stroke-width:1.5">DENGUE </tspan></text></g></svg>
